<?xml version="1.0" encoding="UTF-8" standalone="no"?>
<svg width="980px" height="400px" viewBox="0 0 980 400" version="1.1" xmlns="http://www.w3.org/2000/svg" xmlns:xlink="http://www.w3.org/1999/xlink" xmlns:sketch="http://www.bohemiancoding.com/sketch/ns">
    <!-- Generator: Sketch 3.5.1 (25234) - http://www.bohemiancoding.com/sketch -->
    <title>Slice 1</title>
    <desc>Created with Sketch.</desc>
    <defs></defs>
    <g id="Page-1" stroke="none" stroke-width="1" fill="none" fill-rule="evenodd" sketch:type="MSPage">
        <g id="noun_12592_cc" sketch:type="MSLayerGroup" transform="translate(363.000000, 73.000000)">
            <path d="M4.55995016,96.8514851 L4.68910891,96.214099 C4.70685149,96.1355248 4.73473267,96.0544158 4.74994059,95.9758416 L103.304871,95.9758416 L103.304871,108.818931 L2.21021782,108.818931 C1.60950495,113.013782 1.21916832,117.264396 1.03413861,121.575842 L193.361109,121.575842 C192.689426,120.262891 191.787089,119.079208 190.877149,117.920871 C157.997624,75.4172673 140.310812,79.1026535 115.009901,78.0228911 C106.574574,77.6756436 100.853861,77.5362376 67.2773069,77.5362376 C49.3066139,77.5362376 29.769505,77.5818614 10.744396,77.6325545 C10.7526001,77.6131185 10.7608103,77.5936862 10.7690266,77.5742574 L10.8710043,77.5742574 C8.25988053,83.7637997 6.13275459,90.2052772 4.52056169,96.8514851 L4.55995016,96.8514851 Z M17.0901732,64.9009901 C17.1082381,64.8688798 17.1263124,64.8367742 17.144396,64.8046733 C17.1262606,64.8367702 17.1081393,64.8688758 17.0900321,64.9009901 L17.0901732,64.9009901 Z" id="Shape" fill="#383838" sketch:type="MSShapeGroup"></path>
            <path d="M194.876832,134.431604 L1.1329901,134.431604 C1.33576238,137.858455 1.65512871,141.239683 2.11643564,144.575287 L180.989465,144.575287 C188.963485,144.575287 193.42701,140.048396 194.876832,134.431604 L194.876832,134.431604 Z" id="Shape" fill="#383838" sketch:type="MSShapeGroup"></path>
            <path d="M12.0007569,178.960396 C12.0985016,179.177801 12.1967854,179.394935 12.295604,179.611802 L242.708277,179.611802 C222.72,223.32697 178.715881,253.760554 127.503208,253.760554 C76.0329779,253.760554 31.8032929,223.042248 11.9625908,178.960396 L12.0007568,178.960396 Z M7.92494647,168.821782 C7.70434849,168.199114 7.48833228,167.573928 7.2769901,166.946139 C7.48543021,167.573541 7.69862498,168.198773 7.91653178,168.821791 L7.9249459,168.821782 Z" id="Shape" fill="#9FB478" sketch:type="MSShapeGroup"></path>
            <path id="Shape" fill="#383838" sketch:type="MSShapeGroup" d="M0.963168317,122.982574 C0.917544554,124.328475 0.76039604,125.656634 0.76039604,127.010139 C0.76039604,128.373782 0.920079208,129.694337 0.963168317,131.040238 L0.963168317,122.982574 L0.963168317,122.982574 Z"></path>
            <path d="M242.743762,179.540832 C244.609267,175.449901 246.292277,171.262653 247.719287,166.951208 C246.292277,171.25505 244.609267,175.442297 242.743762,179.540832 L242.743762,179.540832 Z" id="Shape" fill="#383838" sketch:type="MSShapeGroup"></path>
            <path d="M4.68857555,157.415842 L4.68910891,157.418376 L180.986931,157.418376 C192.220515,157.418376 201.497347,151.667248 205.808792,142.025426 C210.492832,131.534495 208.510733,120.584792 201.621545,111.059564 C194.169663,100.761267 181.668752,86.3061386 173.010376,79.7565941 C157.059802,67.681505 136.787644,65.9097822 120.294653,65.3597624 L115.559921,65.1848713 C107.912871,64.865505 106.45798,64.6906139 67.3127921,64.6906139 L67.3127921,64.7032871 L67.3051881,64.7032871 C67.3051881,64.7032871 34.1874059,64.7235644 17.1824158,64.7590495 C38.9424158,26.2982178 80.1482772,0.28 127.500673,0.28 C197.497663,0.28 254.24095,57.0258218 254.238416,127.010139 C254.238416,140.910178 251.919208,154.250059 247.785188,166.758574 L7.21108911,166.758574 C6.19680569,163.69645 5.31476989,160.579939 4.5524658,157.415842 L4.68857555,157.415842 Z" id="Shape" fill="#7AAFBF" sketch:type="MSShapeGroup"></path>
        </g>
    </g>
</svg>